<?xml version="1.0" encoding="UTF-8"?> <svg xmlns="http://www.w3.org/2000/svg" width="153" height="40" viewBox="0 0 153 40" fill="none"><path d="M41.775 28H44.825V22.075L46.35 20.275L51.1 28H54.7L48.525 18.325L54.325 11.15H50.55L46.125 17.075C45.725 17.65 45.3 18.25 44.9 18.9H44.825V11.15H41.775V28ZM55.7984 28H58.8734V20.7C58.8734 20.375 58.8984 20.05 58.9984 19.775C59.3484 18.85 60.1984 18.05 61.3984 18.05C63.0984 18.05 63.7484 19.4 63.7484 21.15V28H66.8234V20.825C66.8234 16.925 64.6484 15.55 62.5734 15.55C61.7984 15.55 61.0734 15.75 60.4484 16.1C59.8234 16.425 59.2984 16.9 58.9234 17.475H58.8734V10.25H55.7984V28ZM79.0551 20.7C79.0551 18.025 77.9301 15.55 74.0301 15.55C72.1051 15.55 70.5301 16.075 69.6301 16.625L70.2301 18.625C71.0551 18.1 72.3051 17.725 73.5051 17.725C75.6551 17.725 75.9801 19.05 75.9801 19.85V20.05C71.4801 20.025 68.7551 21.6 68.7551 24.65C68.7551 26.5 70.1301 28.275 72.5801 28.275C74.1801 28.275 75.4551 27.6 76.1801 26.65H76.2551L76.4801 28H79.2551C79.1051 27.25 79.0551 26.175 79.0551 25.075V20.7ZM76.0551 23.725C76.0551 23.95 76.0551 24.175 75.9801 24.4C75.6801 25.275 74.8051 26.075 73.5551 26.075C72.5801 26.075 71.8051 25.525 71.8051 24.325C71.8051 22.475 73.8801 22.025 76.0551 22.05V23.725ZM82.1539 13.55V15.825H80.4289V18.125H82.1539V23.85C82.1539 25.45 82.4539 26.575 83.1289 27.275C83.7039 27.9 84.6289 28.275 85.7789 28.275C86.7289 28.275 87.5539 28.125 88.0039 27.95L87.9539 25.625C87.6039 25.725 87.3039 25.75 86.7539 25.75C85.5789 25.75 85.1789 25 85.1789 23.5V18.125H88.1039V15.825H85.1789V12.7L82.1539 13.55ZM99.3686 20.7C99.3686 18.025 98.2436 15.55 94.3436 15.55C92.4186 15.55 90.8436 16.075 89.9436 16.625L90.5436 18.625C91.3686 18.1 92.6186 17.725 93.8186 17.725C95.9686 17.725 96.2936 19.05 96.2936 19.85V20.05C91.7936 20.025 89.0686 21.6 89.0686 24.65C89.0686 26.5 90.4436 28.275 92.8936 28.275C94.4936 28.275 95.7686 27.6 96.4936 26.65H96.5686L96.7936 28H99.5686C99.4186 27.25 99.3686 26.175 99.3686 25.075V20.7ZM96.3686 23.725C96.3686 23.95 96.3686 24.175 96.2936 24.4C95.9936 25.275 95.1186 26.075 93.8686 26.075C92.8936 26.075 92.1186 25.525 92.1186 24.325C92.1186 22.475 94.1936 22.025 96.3686 22.05V23.725ZM102.364 27.95C103.089 28.05 104.239 28.15 105.739 28.15C108.489 28.15 110.389 27.65 111.539 26.575C112.414 25.775 112.989 24.65 112.989 23.2C112.989 20.7 111.114 19.375 109.514 19V18.925C111.264 18.3 112.364 16.875 112.364 15.225C112.364 13.9 111.814 12.9 110.939 12.25C109.914 11.4 108.514 11.025 106.339 11.025C104.839 11.025 103.314 11.175 102.364 11.4V27.95ZM104.539 12.85C104.889 12.775 105.464 12.7 106.464 12.7C108.664 12.7 110.139 13.5 110.139 15.45C110.139 17.075 108.789 18.3 106.514 18.3H104.539V12.85ZM104.539 19.925H106.339C108.714 19.925 110.689 20.9 110.689 23.175C110.689 25.625 108.614 26.45 106.364 26.45C105.589 26.45 104.989 26.425 104.539 26.35V19.925ZM120.561 15.65C117.236 15.65 114.561 18.025 114.561 22.05C114.561 25.875 117.111 28.275 120.361 28.275C123.261 28.275 126.386 26.325 126.386 21.85C126.386 18.175 124.036 15.65 120.561 15.65ZM120.511 17.3C123.111 17.3 124.136 19.875 124.136 21.925C124.136 24.65 122.561 26.625 120.461 26.625C118.311 26.625 116.811 24.625 116.811 21.975C116.811 19.7 117.936 17.3 120.511 17.3ZM133.782 15.65C130.457 15.65 127.782 18.025 127.782 22.05C127.782 25.875 130.332 28.275 133.582 28.275C136.482 28.275 139.607 26.325 139.607 21.85C139.607 18.175 137.257 15.65 133.782 15.65ZM133.732 17.3C136.332 17.3 137.357 19.875 137.357 21.925C137.357 24.65 135.782 26.625 133.682 26.625C131.532 26.625 130.032 24.625 130.032 21.975C130.032 19.7 131.157 17.3 133.732 17.3ZM144.053 10.25H141.878V28H144.053V23.45L145.178 22.2L149.328 28H152.028L146.703 20.875L151.353 15.9H148.728L145.153 20.075C144.803 20.5 144.403 21.025 144.103 21.45H144.053V10.25Z" fill="#262626"></path><path d="M9.07605 7.00414C9.07605 6.63164 9.34944 6.31559 9.71805 6.26195L27.0224 3.74384C27.4748 3.678 27.8804 4.02882 27.8804 4.48602V35.3649C27.8804 35.8138 27.4888 36.1621 27.043 36.1098L9.73864 34.0793C9.36083 34.0349 9.07605 33.7148 9.07605 33.3344V7.00414Z" fill="white" stroke="#A3131D" stroke-width="2.5"></path><path d="M0 5.21716C0 4.21999 0.734534 3.37517 1.72202 3.23657L22.5046 0.319716C23.708 0.150828 24.7826 1.08518 24.7826 2.3003V37.7394C24.7826 38.9406 23.7311 39.8709 22.5388 39.7244L1.75622 37.1722C0.753456 37.049 0 36.1974 0 35.1871V5.21716Z" fill="#A3131D"></path></svg> 